<?xml version="1.0" ?><svg data-name="Your Icons" id="Your_Icons" viewBox="0 0 96 96" xmlns="http://www.w3.org/2000/svg"><defs><style>.cls-1{fill:#231f20;}</style></defs><title/><path class="cls-1" d="M73.61,38.73H22.39a2.51,2.51,0,0,0-2.5,2.5v22.3a2.5,2.5,0,0,0,2.5,2.5H73.61a2.5,2.5,0,0,0,2.5-2.5V41.23A2.51,2.51,0,0,0,73.61,38.73Zm1.5,24.8a1.5,1.5,0,0,1-1.5,1.5H22.39a1.5,1.5,0,0,1-1.5-1.5V41.23a1.5,1.5,0,0,1,1.5-1.5H73.61a1.5,1.5,0,0,1,1.5,1.5Z"/><path class="cls-1" d="M48,43.12a9.27,9.27,0,1,0,9.27,9.26A9.27,9.27,0,0,0,48,43.12Zm0,17.53a8.27,8.27,0,1,1,8.27-8.27A8.28,8.28,0,0,1,48,60.65Z"/><path class="cls-1" d="M49.81,47.06H46.19v3.51H42.68V54.2h3.51v3.5h3.62V54.2h3.51V50.57H49.81Zm2.51,4.51V53.2H48.81v3.5H47.19V53.2H43.68V51.57h3.51V48.06h1.62v3.51Z"/><path class="cls-1" d="M80.67,28.37H77.59a2,2,0,0,0-2,2v.47H65v-.47a2,2,0,0,0-2-2H57.7V23.83a3.5,3.5,0,0,0-3.5-3.5H41.8a3.5,3.5,0,0,0-3.5,3.5v4.54H32.51a2,2,0,0,0-2,2v.47H19.91v-.47a2,2,0,0,0-2-2H14.83a2,2,0,0,0-2,2V67.84a2,2,0,0,0,1.67,2v1.61A2.39,2.39,0,0,0,17,73.67h6.52A2.39,2.39,0,0,0,26,71.42V69.84h6v1.58a2.39,2.39,0,0,0,2.5,2.25H59.46A2.39,2.39,0,0,0,62,71.42V69.84h6.89v1.58a2.39,2.39,0,0,0,2.5,2.25h6.52a2.39,2.39,0,0,0,2.5-2.25V69.84h.3a2,2,0,0,0,2-2V30.37A2,2,0,0,0,80.67,28.37ZM65,31.84h10.6v.46a2,2,0,0,1-2,2H67a2,2,0,0,1-2-2Zm-25.69-8a2.5,2.5,0,0,1,2.5-2.5H54.2a2.5,2.5,0,0,1,2.5,2.5v4.38H54.2V26.09a2.26,2.26,0,0,0-2.26-2.26H44.06a2.26,2.26,0,0,0-2.26,2.26v2.12H39.3Zm13.9,2.26v2.12H42.8V26.09a1.25,1.25,0,0,1,1.26-1.26h7.88A1.25,1.25,0,0,1,53.2,26.09ZM19.91,31.84h10.6v.46a2,2,0,0,1-2,2h-6.6a2,2,0,0,1-2-2ZM18,72.67H17a1.4,1.4,0,0,1-1.5-1.25V69.84H18Zm3.51,0H19V69.84h2.51ZM25,71.42a1.39,1.39,0,0,1-1.5,1.25h-1V69.84H25Zm35.94,0a1.39,1.39,0,0,1-1.5,1.25H34.54A1.39,1.39,0,0,1,33,71.42V69.84H61Zm11.4,1.25h-1a1.4,1.4,0,0,1-1.5-1.25V69.84h2.51Zm3.51,0H73.36V69.84h2.51Zm3.5-1.25a1.39,1.39,0,0,1-1.5,1.25h-1V69.84h2.5Zm2.3-3.58a1,1,0,0,1-1,1H14.83a1,1,0,0,1-1-1V30.37a1,1,0,0,1,1-1h3.08a1,1,0,0,1,1,1V32.3a3,3,0,0,0,3,3h6.6a3,3,0,0,0,3-3V30.37a1,1,0,0,1,1-1H63a1,1,0,0,1,1,1V32.3a3,3,0,0,0,3,3h6.6a3,3,0,0,0,3-3V30.37a1,1,0,0,1,1-1h3.08a1,1,0,0,1,1,1Z"/></svg>